<svg xmlns="http://www.w3.org/2000/svg" xml:space="preserve" id="Calque_1" x="0" y="0" version="1.1" viewBox="0 0 251.2 62"><style>.st0{fill:#ed8150}.st1{fill:none}.st2{fill:#353535}.st3{fill:#767676}.st4{fill:#e75923}</style><path d="M87.8 38.9c0-.4-.4-.8-.7-1-1.2-.6-2.5-.1-3.7 0-1 .5-2 .9-2.9 1.5-.3 0-.5.4-.8.5-.4.3-1 .6-1.3 1-2 2-3.8 4.2-5.1 6.8-.5 1-.9 2.2-1.1 3.3 0 1 0 2 .3 2.9 0 0 .1 0 .1.1.2.5.6 1.1 1 1.4h.1c.1 0 .3.2.4.3.2 0 .3.2.5.1 1 .4 1.9.3 2.9 0 .3-.1.7-.1 1-.2l.1-.1c.4-.1.8-.2 1.2-.2.3-.3.9-.4 1.2-.6h.1c.3-.2.8-.4 1.1-.5s.6-.4.9-.4c1.2-.6 2.3-1.5 3.4-2.2.1-.2.1-.4 0-.5l-.3-.1-.3.1c-.9.7-2.1 1.2-3.1 1.8h-.1v.1l-.3.1v.1c-.4.1-1 .5-1.3.5-1.7.8-3.7 1.4-5.5 1.1-.6-.1-1.4-.2-1.7-.7l-.2-.1c-.2-.1-.3-.5-.4-.6-.9-2.9 1.2-5.9 2.7-8.2 0-.1.3-.3.3-.4.6-.8 1.3-1.6 2-2.3 1.6-1.4 3.1-3 5.2-3.4 1.1-.2 2.3-.8 3.5-.3.2.2.3.7.2.9-.3.4-.6 1.2-.1 1.6.7.3.9-1.9.7-2.4" class="st0"/><path d="M93.2 46.6c0-.1-.1-.3-.1-.3l-.1-.1c0-.1-.2-.1-.2-.2-.4-.2-.7-.2-1.2-.2-.2.1-.6 0-.8.1-.3.1-.6.2-.8.2-.1-.1-.2-.1-.2-.1h-.1c-.2 0-.4 0-.6.1-.1 0-.4.4-.5.3-.4.1-.8.1-1.2-.1-.2 0-.4.1-.5.2s-.2.4-.1.6c.1.4.5.4.8.4l-.4.4c-.5.7-1.2 1.4-1.6 2.3-.5 1 .4 1.8 1.4 1.5v-.1c.3-.2.7-.3.9-.6h.1c.7-.8 1.7-1.6 1.8-2.7h-.1.1c.1-.4-.1-.9-.3-1.1.1 0 .5-.1.6-.1.5-.3 2-.6 2.6-.1-.1.3-.2.7-.2 1l.2.1.2-.1c.2-.5.4-1 .3-1.4M89 48.2c-.2.6-.6 1.2-1.1 1.6h-.1c-.3.4-1 .9-1.5.9v-.1c.1-1.4 1.5-2.3 2.4-3.2.2.1.4.2.4.5 0 0-.1.2-.1.3" class="st0"/><path d="m98.7 47.8-.1-.2h-.2c-.5.4-1.1 1.1-1.6 1.4-.1.2-.5.4-.7.5-.1.1-.6.3-.7.4-.2.1-.5.3-.7.2v-.2c-.3-.8.4-1.8-.3-2.5-.7-.2-1.2.7-1.7 1.1.3-.7.6-1.4.8-2.2.8-1.3-.8-2.2-.7-.4-.2 1.2-.8 2.4-1.2 3.5-.2.7-1.1 1.7-.3 2.2h.2c.5-.6.9-1.4 1.4-2 .4-.4.7-1 1.2-1.3v.3c-.1.6-.5 1.8.2 2.3.1.1.3.1.5.2h.1c.6 0 1.3-.4 1.7-.8.8-.6 1.6-1.3 2.2-2 0-.2 0-.4-.1-.5" class="st0"/><path d="M102.8 46.4c-.3-2.3-3.6 0-4.3.9v.1c-.2.1-.5.6-.5.7-.2.5-.2 1 .2 1.3 0 0 .1.1.1.2.1 0 .2.1.2.1.1.2.3.2.4.3.2.2.6.5.8.6-.2 0-.4.1-.6.1-.1 0-.1.1-.2 0-.4.1-1.2.2-1.6.2-.3.3-.9.3-1.2.5l-.1.3c0 .1.1.3.2.4.6-.2 1.2-.4 1.8-.5.8 0 1.8 0 2.6-.2.1 0 .2-.1.3-.2.8-.4.4-1.5-.4-1.5-.1 0-.2-.1-.3-.1s-.3-.1-.4-.2l-.6-.3h-.1c-.2-.2-.5-.4-.6-.7.4-.6.9-1.3 1.6-1.6.4-.3 1.1-.7 1.6-.6l.1.1c-.1 1.3 1 1.4 1 .1M109.2 47.3c-.5-.7-1.3 1-1.9 1.1-.7.6-1.7 1.2-2.5 1.6-.5.3-1.3.8-1.9.6-.1-.4 0-.9.2-1.3v.1l.2.2c1 0 1.7-.9 2.4-1.5h.1c.3-.3.7-.7.9-1.1.2-.5.1-1.4-.6-1.5-1.2 0-2.1 1.2-2.8 2.1-.6.7-1.1 1.6-1.2 2.6-.1.8.3 2 1.3 1.6.6-.2 1.3-.5 1.8-.9.6-.3 1.2-.7 1.6-1.1.7-.5 1.5-1.1 2-1.7.3-.3.5-.6.4-.8m-3.1-1.1c0 .4-.4.9-.6 1.1-.5.5-1.1.9-1.8 1.1.5-.9 1.2-1.8 2.4-2.2M111.2 42.2c0-.1-.1-.4-.4-.4-.3.1-.5.5-.7.8-.2.5-.6 1.2-.5 1.7.4.1.7-.5.9-.7.3-.4.9-.8.7-1.4" class="st0"/><path d="m112.2 48.2-.2-.2h-.2c-.7.8-1.6 1.5-2.3 2.2-.2.2-.6.5-.9.5-.1.2-.4.3-.6.4h-.2c.1-.9.5-2 1-2.7.2-.6.7-1.2 1-1.8.2-.7-.5-1-.8-.5-.7 1.3-1.2 2.6-1.8 3.9-.1.4-.2 1-.2 1.4.1.4.4.5.7.6.7-.1 1.1-.5 1.7-.9 1-.7 1.7-1.7 2.7-2.4l.2-.3z" class="st0"/><path d="M117.2 38.1c-.8-1.3-2.5 3.7-2.9 4.2-.9 2.2-2.1 4.3-2.9 6.5h-.1c-.4 1.1-1.1 2.3-.5 3.5.1 0 .3.1.4.1h.1l.2-.1c1.6-.9 2.7-2.3 4-3.6h.1l.2-.2v-.4l-.1-.1h-.2c-1.2 1.1-2.5 2.5-4 3.3 0-.2.1-.4.1-.5 1.1-3.2 2.6-6.3 4.1-9.3.2-.4.5-.9.7-1.4.1-.7 1.1-1.1.8-2" class="st0"/><path d="M119.9 46.4c-.3-2.3-3.6 0-4.3.9v.1c-.1.1-.4.6-.4.7-.2.5-.2 1 .2 1.3 0 0 .1.1.1.2.1 0 .2.1.2.1.1.2.3.2.4.3.2.2.6.5.8.6-.2 0-.4.1-.6.1-.1 0-.1.1-.2 0-.4.1-1.2.2-1.6.2-.3.3-.9.3-1.2.5l-.1.2c0 .1.1.3.2.4.6-.2 1.2-.4 1.8-.5.8 0 1.8 0 2.6-.2.1 0 .2-.1.3-.2.8-.4.4-1.5-.4-1.5-.1 0-.2-.1-.3-.1s-.3-.1-.4-.2l-.6-.3h-.1c-.2-.2-.5-.4-.6-.7.4-.6.9-1.3 1.6-1.6.4-.3 1.1-.7 1.6-.6l.1.1c-.1 1.4 1 1.5.9.2" class="st0"/><path d="M173.5 46.6q-.15 0 0 0v-.4l-.1-.1h-.30000000000000004l-.4.2c-.1 0-.2.1-.2.2-.1 0-.1.1-.1.1l-.1.1-.1.1-.1.1c-.1.1-.3.2-.4.3l-.3.3-.4.4-.1.1-.1.1-.1.1-.1.1-.1.1-.1.1-.2.2-.3.3-.3.4v.30000000000000004l-.2.6h.30000000000000004l.2.1h.7999999999999999s.1 0 .1-.1h.2q.45-.15.6-.3l.1-.1h.1l.2-.2.2-.1h.1l.3-.3.3-.3.1-.1.1-.1.1-.1.1-.2.1-.1v-.1l.1-.3.2-.3.3-.7zM176.7 47.7l-.1-.1-.1-.1-.1-.1-.1.1-.5.5-.5.5-.1.1-.1.1v.1l-.1.2-.1.2-.1.1-.2.3-.1.1-.2.4c0 .1-.1.2-.1.3v.4c.3 0 .3 0 .6-.2.1-.1.3-.2.4-.2h.1l.2-.2.2-.3h.1l.3-.3.2-.2.1-.1.2-.3.1-.2c.1-.1.1-.3.2-.4V48zM193.4 10.3c-3.3 0-6.1 2.4-6.8 5.8h13.5c-.5-3.4-3.4-5.8-6.7-5.8M160.1 24.5c3.8 0 6.8-3.2 6.8-7.1s-3.1-7-6.8-7c-3.6 0-6.6 3-6.8 6.8v.3c.1 3.8 3.2 7 6.8 7M157.3 47.7l-.1-.1-.1-.1-.1-.1-.1.1-.5.5-.5.5-.1.1-.1.1v.1l-.1.2-.1.2-.1.1-.2.3-.1.1-.2.4c0 .1-.1.2-.1.3v.4c.3 0 .3 0 .6-.2.1-.1.3-.2.4-.2h.1l.2-.2.2-.3h.1l.3-.3.2-.2.1-.1.2-.3.1-.2c.1-.1.1-.3.2-.4V48zM124.7 10.2c-3.6 0-6.7 3.2-6.7 7.2s3.1 7.2 6.7 7.2c3.7 0 6.7-3.2 6.7-7.2s-3-7.2-6.7-7.2M242.8 24.6c3.6 0 6.7-3.2 6.7-7.2s-3.1-7.2-6.7-7.2-6.7 3.2-6.7 7.2 3 7.2 6.7 7.2M84.6 24.6c3.8 0 6.8-3.2 6.8-7.1 0-4-3.1-7.2-6.8-7.2s-6.7 3.1-6.8 6.9v.3c0 3.9 3.1 7.1 6.8 7.1M201.6 47.7l-.1-.1-.1-.1-.1-.1-.1.1-.5.5-.5.5-.1.1-.1.1v.1l-.1.2-.1.2-.1.1-.2.3-.1.1-.2.4c0 .1-.1.2-.1.3v.4c.3 0 .3 0 .6-.2.1-.1.3-.2.4-.2h.1l.2-.2.2-.3h.1l.3-.3.2-.2.1-.1.2-.3.1-.2c.1-.1.1-.3.2-.4V48zM61.8 10.2c-3.6 0-6.7 3.2-6.7 7.2s3.1 7.2 6.7 7.2c3.7 0 6.7-3.2 6.7-7.2s-3-7.2-6.7-7.2" class="st1"/><path d="M47.5.9c-.5 0-.9.4-.9.9v11h-13v-11c0-.5-.4-.9-.9-.9s-.9.4-.9.9v23.7c0 .5.4.9.9.9s.9-.4.9-.9v-11h13.1v11c0 .5.4.9.9.9s.9-.4.9-.9V1.8c-.1-.5-.5-.9-1-.9M69.4 8.5c-.5 0-.9.4-.9.9V12c-1.5-2.1-4-3.5-6.7-3.5-4.7 0-8.4 4-8.4 8.9s3.7 8.9 8.4 8.9c2.7 0 5.2-1.4 6.7-3.5v2.7c0 .5.4.9.9.9s.9-.4.9-.9V9.4c0-.5-.4-.9-.9-.9m-7.6 16.1c-3.6 0-6.7-3.2-6.7-7.2s3.1-7.2 6.7-7.2c3.7 0 6.7 3.2 6.7 7.2s-3 7.2-6.7 7.2M76.9 26.3c.5 0 .9-.4.9-.9v-2.6c1.6 2.1 4 3.5 6.8 3.5 4.8 0 8.6-4 8.6-8.9s-3.8-8.9-8.6-8.9c-2.8 0-5.3 1.4-6.8 3.5V1.8c0-.5-.4-.9-.9-.9s-.9.4-.9.9v23.700000000000003c0 .4.4.8.9.8m.9-9.1c.1-3.8 3.2-6.9 6.8-6.9 3.8 0 6.8 3.2 6.8 7.2 0 3.9-3.1 7.1-6.8 7.1s-6.8-3.2-6.8-7.1zM99.1 26.3c.5 0 .9-.4.9-.9v-16c0-.5-.4-.9-.9-.9s-.9.4-.9.9v16.1c0 .4.4.8.9.8M99.1 5.4c.5 0 .9-.4.9-.9v-.9c0-.5-.4-.9-.9-.9s-.9.4-.9.9v.8c0 .5.4 1 .9 1M105.6 10.3h2.2v13c0 1.8 1.3 3.1 3.1 3.1.4 0 .9-.4.9-.9 0-.4-.5-.9-.9-.9s-1.3-.4-1.3-1.3v-13h2.3c.4 0 .9-.4.9-.9 0-.4-.4-.9-.9-.9h-2.3V1.9c0-.4-.5-.9-.9-.9s-.9.4-.9.9v6.6h-2.2c-.9 0-.9.4-.9.9 0 .4 0 .9.9.9M132.3 8.5c-.5 0-.9.4-.9.9V12c-1.5-2.1-4-3.5-6.7-3.5-4.7 0-8.4 4-8.4 8.9s3.7 8.9 8.4 8.9c2.7 0 5.2-1.4 6.7-3.5v2.7c0 .5.4.9.9.9s.9-.4.9-.9V9.4c-.1-.5-.5-.9-.9-.9m-7.6 16.1c-3.6 0-6.7-3.2-6.7-7.2s3.1-7.2 6.7-7.2c3.7 0 6.7 3.2 6.7 7.2s-3 7.2-6.7 7.2M137.9 10.3h2.2v13c0 1.8 1.3 3.1 3.1 3.1.4 0 .9-.4.9-.9 0-.4-.5-.9-.9-.9s-1.3-.4-1.3-1.3v-13h2.3c.4 0 .9-.4.9-.9 0-.4-.4-.9-.9-.9h-2.3V1.9c0-.4-.5-.9-.9-.9s-.9.4-.9.9v6.6h-2.2c-.9 0-.9.5-.9.9s0 .9.9.9" class="st2"/><path d="M152.5 33.8c.5 0 .9-.4.9-.9V22.7c1.5 2.1 4 3.5 6.8 3.5 4.8 0 8.6-4 8.6-8.9s-3.8-8.8-8.6-8.8c-2.8 0-5.2 1.4-6.8 3.5V9.4c0-.5-.4-.9-.9-.9s-.9.4-.9.9V33c0 .4.4.8.9.8m.9-16.7c.1-3.8 3.2-6.8 6.8-6.8 3.8 0 6.8 3.1 6.8 7s-3.1 7.1-6.8 7.1-6.8-3.2-6.8-7.1zM174.7 26.3c.4 0 .8-.4.8-.9v-7.8c0-.1 0-.1.1-.3.3-.7.9-2.5 2.1-4.1s2.8-2.9 5.2-2.9c.5 0 .9-.4.9-.9s-.4-.9-.9-.9c-3.4 0-5.8 2.3-7.1 4.4-.1.1-.2.3-.3.4V9.4c0-.5-.4-.9-.8-.9-.5 0-.9.4-.9.9v16c0 .6.4.9.9.9M200.6 22.3c.3-.4.1-.9-.3-1.2-.4-.2-.9-.1-1.2.3-1.2 2-3.4 3.2-5.7 3.2-3.7 0-6.7-2.9-6.9-6.8h14.6c.5 0 .9-.3.9-.8v-.1c-.4-4.7-4-8.3-8.6-8.3-4.8 0-8.6 4-8.6 8.9s3.9 8.9 8.6 8.9c3.1-.1 5.7-1.7 7.2-4.1m-7.2-12c3.3 0 6.1 2.4 6.7 5.8h-13.5c.7-3.4 3.5-5.8 6.8-5.8M211.8 26.3c1.7 0 3.2-.5 4.4-1.4s2-2.1 2-3.6-.8-2.9-2-3.6-2.6-1.2-4.3-1.5h-.1q-2.4-.45-3.6-1.2c-.7-.5-1-1.1-1-1.8s.4-1.5 1.1-2c.8-.6 1.9-1 3.4-1 1.7 0 3.1.9 4.4 1.8.4.3.9.1 1.2-.3s.1-.9-.3-1.2c-1.4-.9-3-1.9-5.3-1.9-1.8 0-3.3.5-4.4 1.2-1.1.8-1.9 2.1-1.9 3.5s.8 2.5 1.9 3.2c1 .7 2.4 1.1 4 1.4h.1c1.7.3 3 .7 3.8 1.3.9.8 1.2 1.3 1.3 2.2 0 .8-.5 1.6-1.3 2.2-.8.7-2 1.1-3.4 1.1-2.3 0-4.2-1.2-5.5-2.1-.4-.3-.9-.3-1.2.1s-.3.8.1 1.2c1.5 1.1 3.8 2.4 6.6 2.4M222 10.3h2.2v13c0 1.8 1.3 3.1 3.1 3.1.4 0 .9-.4.9-.9 0-.4-.5-.9-.9-.9s-1.3-.4-1.3-1.3v-13h2.3c.4 0 .9-.4.9-.9 0-.4-.4-.9-.9-.9H226V1.9c0-.4-.5-.9-.9-.9s-.9.4-.9.9v6.6H222c-.9 0-.9.4-.9.9 0 .4 0 .9.9.9M242.8 26.3c4.7 0 8.4-4.1 8.4-8.9s-3.7-8.9-8.4-8.9-8.4 4.1-8.4 8.9c-.1 4.9 3.7 8.9 8.4 8.9m0-16.1c3.6 0 6.7 3.2 6.7 7.2s-3.1 7.2-6.7 7.2-6.7-3.2-6.7-7.2c0-3.9 3-7.2 6.7-7.2" class="st3"/><path d="m11.8 11 11.8 10.8V11L11.8 0z" class="st4"/><path d="M11.8 0 0 11v10.8L11.8 11z" class="st0"/><path d="M6.7 26.2h10.2l-5.1-8.8z" class="st4"/><path d="m131 50.8-.2-.1c-1.1 0-2.2.7-3.1 1.1-.4-.6-.5-1.3-.7-1.9 0-.2.3-.4.4-.5.9-1.1 1.9-2.1 2.4-3.5.6-1.4-.3-3.2-1.8-1.8-.3.3-.6.7-.8 1.1h-.1v.1c-.8 1.2-1 2.8-.7 4.2-.8.8-1.6 1.7-2.3 2.6-.9 1.8.5 1.6 1.8 1.2.1 0 1.2-.4 1.3-.4h.1c0-.1.2-.1.3-.1.3.4.3.7.7.9s.7-.4.5-.7c-.2-.1-.5-.3-.6-.5.6-.3 1.3-.6 1.9-.8.4-.2 1 0 1.2-.6zm-4.2-3.2c.1-.9.5-1.7 1.1-2.4.3-.4.7-.9 1.2-1 .4.6.2 1.4-.2 2-.3.4-1.6 2.3-2 2.6-.1-.4-.1-.9-.1-1.2m-2.2 5s0-.1.1-.1c.5-.7 1.2-1.6 1.8-2.2.1.5.4 1.2.6 1.7-.7.2-1.8.7-2.5.6M140.2 48c.9-1.8 2.1-4 2.8-5.9.2-.6 2.2-3.8.5-3.4-.9 1.8-1.3 3.8-2.2 5.6l-.1.1c-1.5 3.3-3.4 6.6-4.7 10-.5.8-.7 1.9-.6 2.5l.3.1c.7 0 .5-1.2.7-1.6s.5-1.3.7-1.7c.8-1.8 1.8-3.8 2.6-5.7" class="st0"/><path d="M148.9 46.8c2-2.5 3.9-6 1-8.6-.9-.6-1.9-.8-3-1-1-.2-2 0-3 .2h-.1c-1.7.5-3.6.9-5.2 1.7-.4.3-.9.6-1.3.8-.1.1-.3.2-.5.3l-.3.3c-.6.7-1.5 1.8-.8 2.7.3.5.9.6 1.4.7.7 0 .6-1.2-.1-1.2-.3-.1-.6-.1-.9-.2 0-.7.7-1.3 1.3-1.7.6-.6 1.4-.9 2.2-1.1 1.2-.6 2.7-1.2 4-1.3.8-.3 1.8-.2 2.6-.3.4.3 1 0 1.5.2 1.4 0 2.9 1.3 2.8 2.8-.3 1.8-1.2 3.8-2.4 5.2-1 1.4-2.5 2.5-4 3.3-.7.4-1.5.7-2.3.7-.3.1-.6-.2-1-.2-.2 0-.5-.6-.3-.8.1-.3.3-.6.2-.9h-.3c-1.7 1.6 0 2.9 1.8 2.6.9-.2 1.6-.3 2.3-.6 1.9-1 3.3-2.2 4.4-3.6M162.7 51.4c.1 0 .3-.1.3-.1.4-.2.5-.7.3-1.1-.2-.3-.7-.3-1-.5-.1 0-.3-.1-.4-.2l-.6-.3h-.1c-.2-.2-.5-.4-.6-.7.4-.6.9-1.3 1.6-1.6.4-.3 1.1-.7 1.6-.6l.1.1c-.1 1.1.9 1.5 1 .3.1-2.1-2.6-.8-3.5-.1l-.1-.2-.1-.1c0-.1-.2-.1-.2-.2-.4-.2-.7-.2-1.2-.2-.2.1-.6 0-.8.1-.3.1-.6.2-.8.2l-.1-.1-.1-.1c-.2 0-.4 0-.6.1-.1 0-.4.4-.5.3-.4.1-.8.1-1.2-.1-.1 0-.3 0-.3.1.1-.4.1-1-.3-1.3-.8-.2-1.6.7-2.3 1.1-.3.2-.7.8-.9.9-.3.4-.8.8-1.1 1.2.1-.2.3-.6.3-.8.2-.5 1.1-1.7.1-2-.4.2-.6.7-.6 1.1-.3.8-.5 1.7-.9 2.4-.1.5-.6 1.2-.7 1.7-.3.6 0 1.8.6.9.3-.7.8-1.5 1.2-2.1 1-1.3 2-2.9 3.6-3.5.1 0 .2 0 .2-.1 0 .2.1.6.2.7h.3v.2c.1.4.5.4.8.4l-.4.4c-.5.7-1.2 1.4-1.6 2.3-.5 1 .4 1.8 1.4 1.5v-.1c.3-.2.7-.3.9-.6h.1c.7-.8 1.7-1.6 1.8-2.7h-.1.1c.1-.4-.1-.9-.3-1.1.1 0 .5-.1.6-.1.5-.3 2-.6 2.6-.1v.2c-.1.1-.2.3-.3.3v.1c-.1.1-.4.6-.4.7-.2.5-.2 1 .2 1.3 0 0 .1.1.1.2.1 0 .2.1.2.1.1.2.3.2.4.3.2.2.6.5.8.6-.2 0-.4.1-.6.1-.1 0-.1.1-.2 0-.4.1-1.2.2-1.6.2-.3.3-.9.3-1.2.5l-.1.2c0 .1.1.3.2.4.6-.2 1.2-.4 1.8-.5.7.2 1.6.2 2.4 0m-5.4-3.6q0 .15 0 0c-.1.8-.6 1.4-1.1 2h-.1c-.3.4-1 .9-1.5.9v-.1c.1-1.4 1.5-2.3 2.4-3.2.1.1.3.2.3.4M191.5 45.2l-.2-.2c-.8-.2-1.6.7-2.3 1.1-.3.2-.7.8-.9.9-.3.4-.8.8-1.1 1.2.1-.2.3-.6.3-.8.2-.5 1.1-1.7.1-2-.6.4-.6 1.3-.9 2-.3.9-.7 1.7-1.1 2.6-.2 0-.5.1-.7.2h-.1c-.3.1-.6.2-.9.1h-.1c.2-.9.6-1.7.9-2.6 0-.8-.7-.6-1-.1-.5.2-.8.6-1.1 1-.9.8-1.7 1.7-2.8 2.2.1-1.5 2.1-2.9 1.2-4.4l-.1-.1c0-.1-.2-.1-.2-.2-.4-.2-.7-.2-1.2-.2-.2.1-.6 0-.8.1-.3.1-.6.2-.8.2l-.1-.1-.1-.1c-.2 0-.4 0-.6.1-.1 0-.4.4-.5.3-.4.1-.8.1-1.2-.1-.2 0-.4.1-.5.2s-.2.4-.1.6c.1.4.5.4.8.4l-.4.4c-.5.7-1.2 1.4-1.6 2.3-.5 1 .4 1.8 1.4 1.5v-.1c.3-.2.7-.3.9-.6h.1c.7-.8 1.7-1.6 1.8-2.7h-.1.1c.1-.4-.1-.9-.3-1.1.1 0 .5-.1.6-.1.6-.3 1.8-.5 2.5-.2-.2.3-.1.7-.2 1-.3.8-.7 1.8-1 2.5-.5 1.2.6 1.9 1.5 1.1h.1c.4-.5.9-.9 1.4-1.3.4-.4 1-1 1.5-1.3 0 .1-.1.2-.1.2-.2.5-.4 1.1-.5 1.6-.1.3.1.5.2.7.6 0 1.3-.2 1.9-.5-.3.6.1 1.7.6.9.3-.7.8-1.5 1.2-2.1 1-1.3 2-2.9 3.6-3.5.1 0 .2 0 .2-.1 0 .2.1.6.2.7.6.1.8-1.1.5-1.6m-14.8 2.6q0 .15 0 0c-.1.8-.6 1.4-1.1 2h-.1c-.3.4-1 .9-1.5.9v-.1c.1-1.4 1.5-2.3 2.4-3.2.1.1.4.2.3.4M198.7 47.4s.1 0 0 0c.3-.3.6-1.1.9-1.2.1-.3.4-.7.5-1 .2-.4.8-1 .5-1.5h-.2c-.5.6-1 1.7-1.5 2.3-1.1 1.6-2.3 3.3-3.6 4.7 0-.3.1-.7.1-1 .2-.8.5-1.6.7-2.3.4-.8-.2-1.9-.8-.7-.3 1.6-.8 3.2-.7 4.8h.1l-.1.1.1.4c.1 0 .3.1.3.1.1 0 .3-.1.5-.2l.1-.1c0-.1.1-.1.2-.2h.1c0-.1 0-.2.1-.3h.1c.4-.8 1-1.6 1.6-2.3.3-.5.7-1.1 1-1.6M209.2 46c-.6-1.3-2.7-.1-3.4.5l-.1-.2-.1-.1c0-.1-.2-.1-.2-.2-.4-.2-.7-.2-1.2-.2-.2.1-.6 0-.8.1-.3.1-.6.2-.8.2l-.1-.1-.1-.1c-.2 0-.4 0-.6.1-.1 0-.4.4-.5.3-.4.1-.8.1-1.2-.1-.2 0-.4.1-.5.2s-.2.4-.1.6c.1.4.5.4.8.4l-.4.4c-.5.7-1.2 1.4-1.6 2.3-.5 1 .4 1.8 1.4 1.5v-.1c.3-.2.7-.3.9-.6h.1c.7-.8 1.7-1.6 1.8-2.7h-.1.1c.1-.4-.1-.9-.3-1.1.1 0 .5-.1.6-.1.5-.3 2-.6 2.6-.1v.2c-.1.1-.2.3-.3.3v.1c-.1.1-.4.6-.4.7-.2.5-.2 1 .2 1.3 0 0 .1.1.1.2.1 0 .2.1.2.1.1.2.3.2.4.3.2.2.6.5.8.6-.2 0-.4.1-.6.1-.1 0-.1.1-.2 0-.4.1-1.2.2-1.6.2-.3.3-.9.3-1.2.5l-.1.2c0 .1.1.3.2.4.6-.2 1.2-.4 1.8-.5.8 0 1.8 0 2.6-.2.1 0 .2-.1.3-.2.4-.2.5-.7.3-1.1-.2-.3-.7-.3-1-.5-.1 0-.3-.1-.4-.2l-.6-.3h-.1c-.2-.2-.5-.4-.6-.7.4-.6.9-1.3 1.6-1.6.4-.3 1.1-.7 1.6-.6l.1.1c-.3 1.8 1 1.1.7-.3m-7.6 1.8q0 .15 0 0c-.1.8-.6 1.4-1.1 2h-.1c-.3.4-1 .9-1.5.9v-.1c.1-1.4 1.5-2.3 2.4-3.2.1.1.3.2.3.4M220.9 46.2l.1-.1c.1 0 .2 0 .2-.1 0 .2.1.6.2.7.8.1 1-1.4.3-1.8-.8-.2-1.6.7-2.3 1.1-.3.2-.7.8-.9.9-.3.4-.8.8-1.1 1.2.1-.2.3-.6.3-.8.2-.5 1.1-1.7.1-2-.6.4-.6 1.3-.9 2-.2.7-.7 1.3-1.3 1.7-.7.7-1.6 1.2-2.3 1.8h-.1l-.2.1c-.1.1-.3.3-.5.3.3-1.6 1.2-3.2 1.9-4.7s1.5-3.1 2.3-4.6c.6-.2 1.4-.3 2.1-.2.6 0 1.3.1 1.9.3.3.2.6.2.9.6.5.4.5 1.2.7 1.7l.2.1c.4-.6.1-1.4-.2-2-.1-.1-.2-.3-.2-.4h-.1c0-.2-.2-.2-.3-.3 0 0-.6-.4-.7-.4l-.1-.1h-.3l-.1-.1c-.4 0-.8-.4-1.2-.2l-.2-.1h-.2c-.5-.2-1.2-.1-1.7 0 .3-.6.8-1.2 1.1-1.8.3-.3.2-.7 0-1h-.4c-.6.9-1.1 1.9-1.5 2.9h-.6c-.2 0-.5.2-.7.2l-1 .2h-.1c-.4.1-1.1.3-1.3.7-.1.4.1.9.5.9.8-.3 1.7-.9 2.6-.9l-.4.8c-1.1 2.7-2.8 5.2-3.6 8-.1.5-.2.8 0 1.3.7.5 1.5-.4 2-.7.2-.3.5-.6.8-.6.1-.2.4-.2.5-.4.3-.1.5-.5.8-.6-.2.3-.4.9-.5 1.3-.2.7.3 1.3.7.6.3-.7.8-1.5 1.2-2.1.6-.7 1.1-1.7 1.8-2.3.7-.4 1.2-1 1.8-1.1M231.4 47.4s.1 0 0 0c.3-.3.6-1.1.9-1.2.1-.3.4-.7.5-1 .2-.4.8-1 .5-1.5h-.2c-.5.6-1 1.7-1.5 2.3-1.1 1.6-2.3 3.3-3.6 4.7 0-.3.1-.7.1-1 .2-.8.5-1.6.7-2.3.4-.8-.2-1.9-.8-.7-.2.6-.2 1.3-.3 1.9l-.6.3c-.5.2-1.1.7-1.7.8.2-.4.4-.9.7-1.2.2-.5 0-1-.6-1-.5.1-.8.6-1.2.9-.4.2-.9.7-1.2.9-.4.4-.9.8-1.4 1 .4-1.2 1.2-2.3 2.1-3.1.6-.6 1.8 0 1.6-1.2l-.2-.2c-.3-.1-.5 0-.8 0-1.4.8-2.4 2.3-3.2 3.6-.6 1-.6 2.8.9 1.7 0 0 0-.1.1-.1h.1l.1-.1h.1c.9-.7 1.7-1.5 2.6-2.2-.2.5-.7 1.3-.6 1.8l.1.2c.5.4 1.2-.4 1.6-.6.4-.3.9-.5 1.3-.8-.1.6-.3 1.5-.2 2.1h.1l-.1.1.1.4c.1 0 .3.1.3.1.1 0 .3-.1.5-.2l.1-.1c0-.1.1-.1.2-.2h.1c0-.1 0-.2.1-.3h.1c.4-.8 1-1.6 1.6-2.3.2-.4.6-1 1-1.5M250.2 45.5c-.6-1.2-2.5 1.1-3.3 1.3v-.2h-.1c-.1-.4-.3-.9-.7-1.1-.2-.2-.6 0-.6.3-.1.5.6 1 .8 1.5-.4.3-1 .9-1.4 1.2-.3.4-.8.9-1.1 1.3l-.2.2c-.1 0-.4.1-.5.1h-.1c-.3.1-.6.2-.9.1h-.1c.2-.9.6-1.7.9-2.6 0-.8-.7-.6-1-.1-.5.2-.8.6-1.1 1-.9.8-1.7 1.7-2.8 2.2.1-1.5 2.1-2.9 1.2-4.3-.1-.1-.3 0-.4.1-.3.6-.3 1.4-.6 2l-.8.3c-.5.2-1.1.7-1.7.8.2-.4.4-.9.7-1.2.2-.5 0-1-.6-1-.5.1-.8.6-1.2.9-.4.2-.9.7-1.2.9-.4.4-.9.8-1.4 1 .4-1.2 1.2-2.3 2.1-3.1.6-.6 1.8 0 1.6-1.2l-.2-.2c-.3-.1-.5 0-.8 0-1.4.8-2.4 2.3-3.2 3.6-.6 1-.6 2.8.9 1.7 0 0 0-.1.1-.1h.1l.1-.1h.1c.9-.7 1.7-1.5 2.6-2.2-.2.5-.7 1.3-.6 1.8l.1.2c.5.4 1.2-.4 1.6-.6.4-.3.9-.5 1.3-.8-.2.6-.6 1.3-.3 2 .3.5 1.2.4 1.5 0h.1c.4-.5.9-.9 1.4-1.3.4-.4 1-1 1.5-1.3 0 .1-.1.2-.1.2-.2.5-.4 1.1-.5 1.6-.1.3.1.5.2.7.4.1.8-.1 1.1-.2-.3.4-.7 1.1-.5 1.6l.2.1c.2-.1.3-.3.4-.6.2-.5.6-.9 1-1.3h.1v-.2c.9-.9 1.9-1.8 2.9-2.7.6 1.2 1 2.7 1.3 4 .2.5.3 1 .4 1.5.1.4.3.9.2 1.3.2.6.4 1.2.4 1.8.1.6.3 1.4.3 2l.1.1.1-.1c.3-.4.2-1 .1-1.5s-.1-1.3-.3-1.8c-.4-2.6-1.1-5.2-2-7.6-.1-.1-.2-.3-.2-.3.3-.3.8-.7 1.2-.9.2-.3.6-.5.9-.6v.2l.1.2.2.1.2-.1c.3.3.5-.2.4-.6M174.2 46.1c0-.3-.2-.6-.4-.8-.6-.3-1.1.2-1.6.4-.4.3-1 .7-1.4.9-.2.3-.7.5-.9.8.4-.8-.4-1.9-.8-.7-.1.2-.1.5-.1.7-.1.3-.2.6-.2.9-.9 2.7-2.2 5.6-3.3 8.2-.4 1.2-2.7 4.7-1.5 5.6l.2-.1c.4-.8.4-2 .9-2.9 1.4-3.2 2.3-5.3 3.5-8.3.4.2.9.5 1.4.3l.9-.3c.1 0 .6-.4.7-.4 1.4-1 2.7-2.6 2.6-4.3m-.7000000000000011.5c-.1.6-.4 1.3-.8 1.8 0 0-.1.2-.2.2-.8.9-2.2 2.1-3.5 1.5.3-1.1 1.3-1.9 2.1-2.7.6-.6 1.4-1.1 2.2-1.4.2.1.2.4.2.6" class="st0"/></svg>