<svg width="600" height="88" viewBox="0 0 600 88" fill="none" xmlns="http://www.w3.org/2000/svg">
<path d="M16.2805 64.9477C23.3324 64.9477 28.1208 61.9876 31.255 58.244V59.9852C31.255 62.3359 33.3445 64.4253 36.3916 64.4253C39.2646 64.4253 41.5282 62.2488 41.5282 59.3758V36.7399C41.5282 30.7326 39.9611 25.8572 36.5657 22.5489C33.3445 19.2405 28.2079 17.4123 21.33 17.4123C15.3228 17.4123 10.8827 18.457 6.5296 20.1112C4.96249 20.7206 3.65657 22.3748 3.65657 24.2901C3.65657 26.7278 5.65898 28.6432 8.0967 28.6432C8.61907 28.6432 9.14144 28.5561 9.75086 28.382C12.6239 27.2502 15.9322 26.5537 19.937 26.5537C27.3372 26.5537 31.3421 30.0361 31.3421 36.5657V37.6975C27.7726 36.5657 24.116 35.7822 18.9794 35.7822C7.74845 35.7822 0 40.6576 0 50.5826V50.7567C0 59.9852 7.66139 64.9477 16.2805 64.9477ZM19.2405 57.2863C14.191 57.2863 10.2732 54.7615 10.2732 50.3214V50.1473C10.2732 45.3589 14.2781 42.4859 21.0688 42.4859C25.2478 42.4859 28.8173 43.2695 31.5162 44.3142V47.4484C31.5162 53.2815 26.2054 57.2863 19.2405 57.2863Z" fill="#87DB78"/>
<path d="M52.1422 59.2017C52.1422 62.1618 54.4929 64.4253 57.3659 64.4253C60.326 64.4253 62.6766 62.1618 62.6766 59.2017V5.22368C62.6766 2.35066 60.326 0 57.3659 0C54.4058 0 52.1422 2.35066 52.1422 5.22368V59.2017Z" fill="#87DB78"/>
<path d="M74.4415 59.2017C74.4415 62.1618 76.7921 64.4253 79.6652 64.4253C82.6252 64.4253 84.9759 62.1618 84.9759 59.2017V5.22368C84.9759 2.35066 82.6252 0 79.6652 0C76.7051 0 74.4415 2.35066 74.4415 5.22368V59.2017Z" fill="#87DB78"/>
<path d="M117.984 65.0348C132.175 65.0348 142.622 54.1521 142.622 41.0929V40.9188C142.622 27.7726 132.262 17.064 118.158 17.064C104.054 17.064 93.6065 27.9467 93.6065 41.0929V41.267C93.6065 54.3262 103.967 65.0348 117.984 65.0348ZM118.158 55.8063C109.974 55.8063 104.141 49.1026 104.141 41.0929V40.9188C104.141 32.9092 109.539 26.2925 117.984 26.2925C126.255 26.2925 132.088 32.9962 132.088 41.0929V41.267C132.088 49.1896 126.69 55.8063 118.158 55.8063Z" fill="#87DB78"/>
<path d="M179.114 60.2466L194.437 25.0738C194.698 24.5514 195.046 23.5067 195.046 22.549C195.046 19.676 192.783 17.4995 189.91 17.4995C187.124 17.4995 185.731 19.3278 184.947 21.156L172.933 51.8016L161.092 21.3302C160.222 19.1536 158.742 17.4995 155.869 17.4995C152.996 17.4995 150.645 19.9372 150.645 22.549C150.645 23.5067 150.993 24.3773 151.255 25.1609L166.577 60.2466C167.796 63.0325 169.712 64.8608 172.585 64.8608H173.107C175.98 64.8608 177.895 62.9455 179.114 60.2466Z" fill="#FF3C74"/>
<path d="M222.506 65.0349C236.697 65.0349 247.144 54.1523 247.144 41.0931V40.919C247.144 27.7727 236.784 17.0642 222.68 17.0642C208.576 17.0642 198.129 27.9468 198.129 41.0931V41.2672C198.129 54.3264 208.489 65.0349 222.506 65.0349ZM222.68 55.8064C214.496 55.8064 208.663 49.1027 208.663 41.0931V40.919C208.663 32.9093 214.061 26.2927 222.506 26.2927C230.777 26.2927 236.61 32.9964 236.61 41.0931V41.2672C236.61 49.1898 231.212 55.8064 222.68 55.8064Z" fill="#FF3C74"/>
<path d="M255.087 6.1815C255.087 9.31571 257.699 11.4052 261.094 11.4052C264.489 11.4052 267.101 9.31571 267.101 6.1815V5.65914C267.101 2.52493 264.489 0.522522 261.094 0.522522C257.699 0.522522 255.087 2.52493 255.087 5.65914V6.1815ZM255.87 59.2018C255.87 62.1619 258.221 64.4255 261.094 64.4255C264.054 64.4255 266.405 62.1619 266.405 59.2018V22.8102C266.405 19.8501 264.054 17.4995 261.094 17.4995C258.134 17.4995 255.87 19.8501 255.87 22.8102V59.2018Z" fill="#FF3C74"/>
<path d="M293.318 64.8608C302.895 64.8608 310.382 60.0724 310.382 50.4086V50.2345C310.382 41.9637 302.808 38.9165 296.104 36.8271C290.706 35.0859 285.744 33.6929 285.744 30.2975V30.1234C285.744 27.5115 288.094 25.5962 292.186 25.5962C295.408 25.5962 299.238 26.815 302.982 28.7304C303.678 29.0786 304.201 29.2527 305.071 29.2527C307.509 29.2527 309.425 27.4245 309.425 24.9867C309.425 23.1585 308.38 21.7655 306.9 20.9819C302.46 18.6313 297.323 17.2383 292.448 17.2383C283.306 17.2383 276.08 22.549 276.08 31.2552V31.4293C276.08 40.2225 283.654 43.0084 290.445 44.9238C295.843 46.5779 300.718 47.7968 300.718 51.3663V51.5404C300.718 54.5876 298.107 56.5029 293.579 56.5029C289.4 56.5029 284.786 55.0229 280.346 52.0628C279.737 51.7146 278.953 51.4534 278.082 51.4534C275.645 51.4534 273.816 53.3687 273.816 55.7194C273.816 57.4606 274.687 58.7665 275.819 59.3759C281.13 63.0325 287.485 64.8608 293.318 64.8608Z" fill="#FF3C74"/>
<path d="M318.39 6.1815C318.39 9.31571 321.002 11.4052 324.397 11.4052C327.792 11.4052 330.404 9.31571 330.404 6.1815V5.65914C330.404 2.52493 327.792 0.522522 324.397 0.522522C321.002 0.522522 318.39 2.52493 318.39 5.65914V6.1815ZM319.173 59.2018C319.173 62.1619 321.524 64.4255 324.397 64.4255C327.357 64.4255 329.708 62.1619 329.708 59.2018V22.8102C329.708 19.8501 327.357 17.4995 324.397 17.4995C321.437 17.4995 319.173 19.8501 319.173 22.8102V59.2018Z" fill="#FF3C74"/>
<path d="M340.863 59.2018C340.863 62.1619 343.214 64.4255 346.087 64.4255C349.047 64.4255 351.398 62.1619 351.398 59.2018V38.0459C351.398 30.9069 355.664 26.6409 361.758 26.6409C368.026 26.6409 371.596 30.7328 371.596 37.8718V59.2018C371.596 62.1619 373.946 64.4255 376.907 64.4255C379.867 64.4255 382.13 62.1619 382.13 59.2018V34.6505C382.13 24.0291 376.123 17.0642 365.763 17.0642C358.624 17.0642 354.358 20.8078 351.398 25.0738V22.8102C351.398 19.8501 349.047 17.4995 346.087 17.4995C343.127 17.4995 340.863 19.8501 340.863 22.8102V59.2018Z" fill="#FF3C74"/>
<path d="M407.998 64.8608C417.574 64.8608 425.062 60.0724 425.062 50.4086V50.2345C425.062 41.9637 417.487 38.9165 410.784 36.8271C405.386 35.0859 400.423 33.6929 400.423 30.2975V30.1234C400.423 27.5115 402.774 25.5962 406.866 25.5962C410.087 25.5962 413.918 26.815 417.661 28.7304C418.358 29.0786 418.88 29.2527 419.751 29.2527C422.189 29.2527 424.104 27.4245 424.104 24.9867C424.104 23.1585 423.059 21.7655 421.579 20.9819C417.139 18.6313 412.002 17.2383 407.127 17.2383C397.986 17.2383 390.759 22.549 390.759 31.2552V31.4293C390.759 40.2225 398.334 43.0084 405.125 44.9238C410.522 46.5779 415.398 47.7968 415.398 51.3663V51.5404C415.398 54.5876 412.786 56.5029 408.259 56.5029C404.08 56.5029 399.466 55.0229 395.025 52.0628C394.416 51.7146 393.633 51.4534 392.762 51.4534C390.324 51.4534 388.496 53.3687 388.496 55.7194C388.496 57.4606 389.367 58.7665 390.498 59.3759C395.809 63.0325 402.165 64.8608 407.998 64.8608Z" fill="#FF3C74"/>
<rect x="433.064" y="8.99664" width="163.033" height="78.8279" rx="5.80409" transform="rotate(-3 433.064 8.99664)" fill="#6F228D"/>
<path d="M479.705 26.1217C486.235 26.1217 490.588 30.4748 490.588 37.4397C490.588 47.7129 483.362 55.8967 474.743 55.8967C467.952 55.8967 463.164 51.0212 463.164 44.3175C463.164 34.5666 471.26 26.1217 479.705 26.1217ZM464.818 17.5026C461.858 17.5026 459.681 19.418 458.811 22.8134L445.751 71.5677C444.62 75.8337 446.448 78.3585 450.017 78.3585C452.803 78.3585 454.98 76.4431 455.85 73.1348L460.465 55.8096C463.251 60.9462 467.952 64.951 476.049 64.951C489.195 64.951 501.558 53.0236 501.558 36.7432C501.558 24.5546 493.896 17.0673 483.623 17.0673C477.616 17.0673 473.089 19.9403 468.91 24.1193L469.432 22.2039C469.519 19.418 467.952 17.5026 464.818 17.5026Z" fill="white"/>
<path d="M524.539 23.771C525.41 20.1145 523.668 17.5026 520.186 17.5026C517.4 17.5026 515.224 19.418 514.353 22.8134L504.95 57.6379C503.819 61.9039 505.734 64.4287 509.216 64.4287C512.002 64.4287 514.179 62.5133 515.136 59.205L518.445 46.9293C521.492 35.6114 528.109 29.6912 536.728 27.7759C540.21 26.9052 541.69 25.077 541.69 22.2039C541.69 19.2439 539.949 17.4156 537.076 17.4156C532.288 17.4156 527.325 21.0721 523.494 27.6888L524.539 23.771Z" fill="white"/>
<path d="M561.212 65.0381C575.838 65.0381 588.026 52.153 588.026 38.1362C588.026 25.9476 579.582 17.0673 566.435 17.0673C551.635 17.0673 539.62 30.0395 539.62 44.0563C539.62 56.1578 548.065 65.0381 561.212 65.0381ZM561.821 55.8967C554.856 55.8967 550.068 51.4565 550.068 43.7081C550.068 35.5243 556.771 26.2088 565.826 26.2088C572.791 26.2088 577.579 30.6489 577.579 38.3973C577.579 46.6682 570.701 55.8967 561.821 55.8967Z" fill="white"/>
</svg>
