<svg width="128" height="39" viewBox="0 0 128 39" fill="none" xmlns="http://www.w3.org/2000/svg"><path d="M58.112 24.04c-1.253 0-2.537-.683-2.537-2.17 0-1.239.62-2.24 3.342-2.24h1.404c-.014-1.528-1.108-1.593-1.445-1.593-.217 0-1.146.026-1.364.714h-1.705c.375-2.094 2.755-2.155 3.11-2.155 1.045 0 3 .272 3 3.446v3.902h-1.473l-.04-.934c-.649 1.03-2.054 1.03-2.292 1.03zm.329-1.359c1.044 0 1.896-.635 1.896-1.634v-.233h-1.31c-1.17 0-1.8.154-1.8.907s.759.962 1.214.962v-.002zm34.486 1.359c-1.254 0-2.537-.683-2.537-2.17 0-1.239.62-2.24 3.341-2.24h1.405c-.014-1.528-1.109-1.593-1.445-1.593-.218 0-1.147.026-1.365.714h-1.705c.375-2.094 2.755-2.155 3.11-2.155 1.046 0 3 .272 3 3.446v3.902H95.26l-.04-.934c-.65 1.03-2.054 1.03-2.292 1.03zm.326-1.359c1.044 0 1.897-.635 1.897-1.634v-.233h-1.31c-1.171 0-1.8.154-1.8.907s.758.962 1.213.962v-.002zm-26.412 4.574c-.528 0-2.823-.06-3.273-2.444h1.705c.222.893 1.358.92 1.596.92 1.22 0 1.774-.762 1.774-2.061v-.686c-.661 1.057-1.963 1.043-2.237 1.043-2.344 0-3.179-1.77-3.179-3.654 0-1.293.533-3.777 3.288-3.777.427 0 1.453.083 2.154.907l.109-.796h1.541v6.608c0 3.375-1.886 3.941-3.476 3.941l-.002-.002zm-.095-4.712c1.774 0 1.923-1.849 1.923-2.253 0-.404-.099-2.184-1.909-2.184s-1.882 1.855-1.882 2.239c0 .404.049 2.198 1.868 2.198zm8.4 1.497c-2.598 0-3.49-1.917-3.49-3.695 0-2.298 1.358-3.75 3.504-3.75 2.42 0 3.567 2.138 3.204 4.271h-5.046c.19 1.683 1.437 1.744 1.828 1.744.228 0 1.286-.053 1.527-.81h1.665c-.494 2.156-2.7 2.24-3.19 2.24h-.002zm-1.8-4.422h3.465c-.061-1.305-1.026-1.622-1.691-1.622-.857 0-1.635.447-1.774 1.622zm44.305 4.422c-2.598 0-3.491-1.917-3.491-3.695 0-2.298 1.358-3.75 3.505-3.75 2.42 0 3.567 2.138 3.204 4.271h-5.046c.189 1.683 1.437 1.744 1.828 1.744.227 0 1.285-.053 1.527-.81h1.665c-.494 2.156-2.701 2.24-3.19 2.24h-.002zm-1.802-4.422h3.464c-.06-1.305-1.025-1.622-1.691-1.622-.856 0-1.634.447-1.773 1.622zM82.51 24.04c-.804 0-2.864-.196-3.136-2.266h1.677c.274.76 1.223.852 1.541.852.65 0 1.282-.152 1.282-.795 0-.258-.052-.58-1.064-.77-.492-.09-.877-.18-1.255-.267-1.615-.376-1.963-1.154-1.963-2.055 0-1.792 1.848-2.143 2.863-2.143.577 0 2.586.148 2.824 2.17h-1.582c-.147-.666-.941-.755-1.296-.755-.278 0-1.201.052-1.201.74 0 .352.218.622.913.784.363.085 1.415.272 1.717.353 1.038.282 1.665.767 1.665 1.9 0 2.136-2.32 2.253-2.987 2.253l.002-.002zm42.505 0c-.804 0-2.864-.196-3.136-2.266h1.677c.274.76 1.223.852 1.541.852.649 0 1.282-.152 1.282-.795 0-.258-.052-.58-1.064-.77-.492-.09-.877-.18-1.256-.267-1.614-.376-1.962-1.154-1.962-2.055 0-1.792 1.848-2.143 2.863-2.143.577 0 2.586.148 2.824 2.17h-1.582c-.147-.666-.941-.755-1.296-.755-.278 0-1.201.052-1.201.74 0 .352.217.622.913.784.362.085 1.414.272 1.717.353 1.038.282 1.664.767 1.664 1.9 0 2.136-2.319 2.253-2.986 2.253l.002-.002zm-39.303 2.595v-1.483h.518c.778 0 1.01-.376 1.01-1.168v-7.279h1.664v7.513c0 1.827-.796 2.417-2.317 2.417h-.875zm15.778-2.595c-2.24 0-3.204-1.247-3.204-3.283v-4.052h1.665v3.942c0 .753.171 1.882 1.542 1.882 1.37 0 1.513-1.114 1.513-1.882v-3.942h1.665v4.052c0 2.348-1.242 3.282-3.178 3.282h-.003zm4.76-.096v-7.239h1.554l.095.92c.695-.973 2.017-1.031 2.263-1.031 1.783 0 2.7 1.112 2.7 3.35v3.998h-1.664v-3.723c0-1.478-.478-2.115-1.473-2.115-.996 0-1.814.785-1.814 2.363v3.475h-1.665l.004.002zm-54.9-7.348c-.474 0-1.565.077-2.306 1.084l-.083-.975h-1.554v9.904h1.665v-3.46c.737.874 1.86.892 2.195.892 2.906 0 3.218-2.724 3.218-3.723 0-1.644-.685-3.722-3.136-3.722zm.749 5.625c-.562.428-1.653.397-2.195.014-.286-.203-.846-.692-.846-1.902s.59-1.72.866-1.916c.625-.447 1.629-.39 2.149.006.274.209.778.726.778 1.922 0 1.084-.44 1.638-.75 1.876h-.002zm35.98-8.441c-.607 0-1.056.437-1.056 1.044 0 .576.36 1.043 1.056 1.043.594 0 1.056-.4 1.056-1.043 0-.676-.539-1.044-1.056-1.044z" fill="#000"/><g clip-path="url(#clip0_370_7)"><path d="M37.897 0H.817A.821.821 0 000 .824v36.389c0 .454.366.824.816.824H37.9c.45 0 .816-.37.816-.824V.824A.821.821 0 0037.9 0h-.003z" fill="#FFDE07"/><path d="M26.893 18.796l-.107-7.057h3.61v7.212c0 5.58-4.6 10.878-11.031 10.878-5.169 0-9.711-3.85-10.645-9.055h3.59c.88 3.255 3.812 5.521 7.158 5.521 4.093 0 7.422-3.362 7.422-7.497l.003-.002zm-16.602-7.41c-1.09 0-1.97.895-1.97 1.999 0 1.103.883 1.998 1.97 1.998 1.188 0 1.97-1.047 1.97-1.998 0-1.152-.843-1.999-1.97-1.999z" fill="#000"/></g><defs><clipPath id="clip0_370_7"><path fill="#fff" d="M0 0h38.716v38.037H0z"/></clipPath></defs></svg>